<svg xmlns="http://www.w3.org/2000/svg" viewBox="0 0 2439.57 630.8"><title>ideaseed-logomark-color-transparent</title><g id="8c51c681-2f7a-4731-95d7-305cc27a11cf" data-name="Calque 2"><g id="8ffdbc9c-ab3a-45b6-bf4b-fb51eaf91c03" data-name="Calque 1"><path d="M634.45,531.75h0c19.42,25.15,43.75,46.61,74.14,62" fill="none" stroke="#4d4d4d" stroke-miterlimit="10" stroke-width="13"/><path d="M561.28,292.43c-3.55-70.17,3.85-123.7,3.85-123.7" fill="none" stroke="#4d4d4d" stroke-miterlimit="10" stroke-width="13"/><path d="M93,91.86S208.09,763.12,599.33,598.23C600.31,595.3,753.37,226.58,93,91.86Z" fill="none" stroke="#fbb03b" stroke-miterlimit="10" stroke-width="13"/><path d="M93,91.86S513.33,348.23,599.33,598.23" fill="none" stroke="#fbb03b" stroke-miterlimit="10" stroke-width="13"/><line x1="67" y1="236.41" x2="15" y2="258.41" fill="none" stroke="#4d4d4d" stroke-miterlimit="10" stroke-width="13"/><line x1="115.46" y1="345.04" x2="70.46" y2="395.38" fill="none" stroke="#4d4d4d" stroke-miterlimit="10" stroke-width="13"/><line x1="197.5" y1="82.41" x2="187.5" y2="21.41" fill="none" stroke="#4d4d4d" stroke-miterlimit="10" stroke-width="13"/><line x1="309" y1="97.16" x2="330" y2="33.66" fill="none" stroke="#4d4d4d" stroke-miterlimit="10" stroke-width="13"/><line x1="75.5" y1="33.66" x2="58.5" y2="3.16" fill="none" stroke="#4d4d4d" stroke-miterlimit="10" stroke-width="13"/><line x1="41" y1="120.41" y2="120.41" fill="none" stroke="#4d4d4d" stroke-miterlimit="10" stroke-width="13"/><line x1="411.5" y1="153.41" x2="473.5" y2="65.41" fill="none" stroke="#4d4d4d" stroke-miterlimit="10" stroke-width="13"/><line x1="174.5" y1="456.41" x2="112.5" y2="553.41" fill="none" stroke="#4d4d4d" stroke-miterlimit="10" stroke-width="13"/><path d="M972.28,570.3q-11.07-14.7-21.07-30c-44.11-67.14-73.42-141.7-92.67-215.22-17.73-67.66-26.92-134.44-31.27-193.74" fill="none" stroke="#4d4d4d" stroke-miterlimit="10" stroke-width="13"/><path d="M951.21,540.32A133.39,133.39,0,1,1,846.32,324.54q6.18,0,12.22.56C877.79,398.62,907.1,473.18,951.21,540.32Z" fill="none" stroke="#4d4d4d" stroke-miterlimit="10" stroke-width="13"/><path d="M2434.37,570.3q-11.07-14.7-21.07-30c-44.11-67.14-73.42-141.7-92.67-215.22-17.72-67.66-26.91-134.44-31.26-193.74" fill="none" stroke="#fbb03b" stroke-miterlimit="10" stroke-width="13"/><path d="M2413.3,540.32a133.39,133.39,0,1,1-104.89-215.78q6.18,0,12.22.56C2339.88,398.62,2369.19,473.18,2413.3,540.32Z" fill="none" stroke="#fbb03b" stroke-miterlimit="10" stroke-width="13"/><path d="M1041.35,563.16c152.75-103.58,107-242.15,107-242.15a133.39,133.39,0,1,0,39.78,236" fill="none" stroke="#4d4d4d" stroke-miterlimit="10" stroke-width="13"/><path d="M1734,563.16c152.75-103.58,107-242.15,107-242.15a133.39,133.39,0,1,0,39.78,236" fill="none" stroke="#fbb03b" stroke-miterlimit="10" stroke-width="13"/><path d="M1982.41,563.16c152.75-103.58,107-242.15,107-242.15a133.39,133.39,0,1,0,39.78,236" fill="none" stroke="#fbb03b" stroke-miterlimit="10" stroke-width="13"/><path d="M1336.92,334.49c-152.75,103.57-107,242.14-107,242.14s25,5.57,38.24,5.57a133.38,133.38,0,1,0-78-241.57" fill="none" stroke="#4d4d4d" stroke-miterlimit="10" stroke-width="13"/><path d="M1455.32,539.73s37.45,30,83.66,30,83.67-29.18,83.67-65.17-37.46-65.17-83.67-65.17" fill="none" stroke="#fbb03b" stroke-miterlimit="10" stroke-width="13"/><path d="M1539,439.41c-46.2,0-83.66-29.18-83.66-65.17s37.46-65.18,83.66-65.18,83.67,25.43,83.67,25.43" fill="none" stroke="#fbb03b" stroke-miterlimit="10" stroke-width="13"/><line x1="561.28" y1="292.43" x2="561.28" y2="292.42" fill="none" stroke="#000" stroke-miterlimit="10" stroke-width="6"/><circle cx="581.15" cy="97.16" r="34.2" fill="none" stroke="#fbb03b" stroke-miterlimit="10" stroke-width="13"/></g></g></svg>